<svg width="215" height="170" viewBox="0 0 215 170" fill="none" xmlns="http://www.w3.org/2000/svg">
<g clip-path="url(#clip0_5826_10341)">
<path d="M7.56082 145.196V149.088H10.1167C11.2043 149.088 12.0666 148.35 12.0666 147.154C12.0666 145.88 11.2043 145.188 10.1167 145.188H7.56082V145.196ZM5.3623 143.277H10.4663C12.556 143.277 14.3428 144.505 14.3428 147.169C14.3428 149.57 12.556 150.999 10.4663 150.999H7.56082V153.951H5.3623V143.277Z" fill="white"/>
<path d="M21.8469 152.055C23.8123 152.055 25.1718 150.564 25.1718 148.63C25.1718 146.695 23.8046 145.204 21.8469 145.204C19.8892 145.204 18.5142 146.664 18.5142 148.63C18.5142 150.595 19.9125 152.055 21.8469 152.055ZM21.8313 143.122C24.9854 143.122 27.3393 145.475 27.3393 148.637C27.3393 151.799 24.9854 154.114 21.8313 154.114C18.6773 154.114 16.3545 151.76 16.3545 148.637C16.3545 145.514 18.7084 143.122 21.8313 143.122Z" fill="white"/>
<path d="M32.3255 149.306C32.3255 150.999 33.1878 152.087 34.9668 152.087C36.7458 152.087 37.6547 150.945 37.6547 149.29V143.277H39.8532V149.446C39.8532 151.955 38.1597 154.122 34.9668 154.122C31.7739 154.122 30.127 152.157 30.127 149.446V143.277H32.3255V149.306Z" fill="white"/>
<path d="M45.1053 149.223C43.4894 148.804 42.6582 147.81 42.6582 146.365C42.6582 144.593 43.9944 143.133 46.9309 143.133C48.4691 143.133 49.9451 143.545 50.7608 143.98L50.1316 146.038C49.347 145.533 48.0108 145.145 46.8532 145.145C45.5015 145.145 44.9344 145.564 44.9344 146.186C44.9344 146.769 45.3306 147.002 46.0997 147.219L48.0807 147.786C50.0151 148.338 50.9551 149.216 50.9551 150.738C50.9551 152.75 49.1838 154.118 46.6047 154.118C45.0509 154.118 43.5283 153.582 42.8369 153.193L43.3574 151.103C44.1265 151.608 45.3694 152.106 46.659 152.106C47.9486 152.106 48.6711 151.616 48.6711 150.909C48.6711 150.327 48.104 150.047 47.1485 149.783L45.1208 149.231L45.1053 149.223Z" fill="white"/>
<path d="M56.1055 150.191H59.8422L58.0244 145.468L56.1055 150.191ZM56.7348 143.277H59.3062L63.4391 153.951H61.2095L60.3938 151.815H55.5462L54.7149 153.951H52.4854L56.7425 143.277H56.7348Z" fill="white"/>
<path d="M67.9134 145.196V152.04H70.2206C72.1861 152.04 73.5534 150.828 73.5534 148.63C73.5534 146.431 72.1861 145.188 70.2206 145.188H67.9134V145.196ZM65.7148 143.277H70.3139C73.4679 143.293 75.8296 145.165 75.8296 148.63C75.8296 152.095 73.4757 153.951 70.3139 153.951H65.7148V143.277Z" fill="white"/>
<path d="M80.8663 150.191H84.603L82.7851 145.468L80.8663 150.191ZM81.4955 143.277H84.0669L88.1998 153.951H85.9702L85.1545 151.815H80.3069L79.4757 153.951H77.2461L81.5033 143.277H81.4955Z" fill="white"/>
<path d="M92.2791 149.223C90.6633 148.804 89.832 147.81 89.832 146.365C89.832 144.593 91.1682 143.133 94.1048 143.133C95.6429 143.133 97.119 143.545 97.9347 143.98L97.3054 146.038C96.5208 145.533 95.1846 145.145 94.0271 145.145C92.6753 145.145 92.1082 145.564 92.1082 146.186C92.1082 146.769 92.5044 147.002 93.2735 147.219L95.2545 147.786C97.1889 148.338 98.1289 149.216 98.1289 150.738C98.1289 152.75 96.3577 154.118 93.7785 154.118C92.2248 154.118 90.7021 153.582 90.0107 153.193L90.5312 151.103C91.3003 151.608 92.5433 152.106 93.8329 152.106C95.1224 152.106 95.8449 151.616 95.8449 150.909C95.8449 150.327 95.2778 150.047 94.3223 149.783L92.2947 149.231L92.2791 149.223Z" fill="white"/>
<path d="M104.6 150.923C104.996 150.923 105.377 150.729 105.579 150.527V148.825C105.353 148.6 104.98 148.421 104.6 148.421C103.877 148.421 103.403 148.919 103.403 149.664C103.403 150.41 103.87 150.923 104.6 150.923ZM106.752 145.912V150.511C106.752 150.767 106.814 150.954 107.055 150.954C107.187 150.954 107.334 150.892 107.49 150.822L107.544 151.754C107.334 151.855 106.954 151.948 106.581 151.948C106.122 151.948 105.804 151.777 105.656 151.389C105.369 151.731 104.911 151.948 104.258 151.948C103.046 151.948 102.207 150.993 102.207 149.672C102.207 148.351 103.046 147.411 104.258 147.411C104.817 147.411 105.26 147.59 105.571 147.854V145.92H106.744L106.752 145.912Z" fill="white"/>
<path d="M111.576 148.996C111.576 148.647 111.312 148.344 110.714 148.344C110.084 148.344 109.75 148.724 109.665 149.152H111.568C111.568 149.105 111.568 149.043 111.568 149.004M112.656 151.389C112.205 151.754 111.56 151.979 110.815 151.979C109.168 151.979 108.43 150.977 108.43 149.688C108.43 148.398 109.339 147.365 110.745 147.365C112.073 147.365 112.702 148.18 112.702 149.19C112.702 149.462 112.664 149.882 112.609 150.045H109.634C109.743 150.659 110.139 151 110.846 151C111.397 151 111.91 150.775 112.213 150.55L112.656 151.389Z" fill="white"/>
<path d="M119.46 145.196V149.088H122.016C123.104 149.088 123.966 148.35 123.966 147.153C123.966 145.879 123.104 145.188 122.016 145.188H119.46V145.196ZM117.262 143.277H122.366C124.455 143.277 126.242 144.504 126.242 147.169C126.242 149.569 124.455 150.999 122.366 150.999H119.46V153.951H117.262V143.277Z" fill="white"/>
<path d="M133.74 152.055C135.705 152.055 137.072 150.564 137.072 148.63C137.072 146.695 135.705 145.204 133.74 145.204C131.774 145.204 130.407 146.664 130.407 148.63C130.407 150.595 131.805 152.055 133.74 152.055ZM133.732 143.122C136.886 143.122 139.24 145.475 139.24 148.637C139.24 151.799 136.886 154.114 133.732 154.114C130.578 154.114 128.255 151.76 128.255 148.637C128.255 145.514 130.609 143.122 133.732 143.122Z" fill="white"/>
<path d="M144.351 145.196V148.381H147.085C148.088 148.381 148.81 147.783 148.81 146.796C148.81 145.747 148.088 145.196 147.085 145.196H144.351ZM142.152 143.277H146.845C148.95 143.277 151.102 144.124 151.102 146.749C151.102 148.521 149.797 149.795 148.088 150.059C149.09 151.03 150.131 152.211 151.242 152.211C151.607 152.211 152.088 152.118 152.438 151.962L152.655 153.702C152.213 153.92 151.591 154.114 150.9 154.114C148.515 154.114 146.751 151.1 145.415 150.113H144.351V153.959H142.152V143.285V143.277Z" fill="white"/>
<path d="M159.122 145.476V153.959H156.931V145.476H153.412V143.277H162.517V145.476H159.122Z" fill="white"/>
<path d="M167.066 149.305C167.066 150.999 167.928 152.086 169.707 152.086C171.486 152.086 172.387 150.944 172.387 149.29V143.277H174.586V149.445C174.586 151.954 172.892 154.122 169.707 154.122C166.522 154.122 164.867 152.156 164.867 149.445V143.277H167.066V149.305Z" fill="white"/>
<path d="M187.627 147.643V152.654C186.64 153.438 184.706 154.114 183.074 154.114C179.92 154.114 177.388 152.071 177.388 148.637C177.388 145.204 179.92 143.122 183.074 143.122C184.799 143.122 186.151 143.704 187.223 144.567L186.197 146.245C185.366 145.553 184.379 145.157 183.121 145.157C181.179 145.157 179.672 146.415 179.672 148.63C179.672 150.844 181.179 152.071 183.222 152.071C184.069 152.071 184.853 151.853 185.436 151.504V149.538H182.631V147.635H187.642L187.627 147.643Z" fill="white"/>
<path d="M192.996 150.191H196.733L194.915 145.468L192.996 150.191ZM193.625 143.277H196.197L200.33 153.951H198.1L197.284 151.815H192.437L191.606 153.951H189.376L193.633 143.277H193.625Z" fill="white"/>
<path d="M202.611 153.959V143.277H204.802V152.04H210.349V153.959H202.611Z" fill="white"/>
<path d="M127.546 0L108.342 7.44231V52.9663L127.546 45.5861V0ZM101.777 64.1608L82.5732 71.5409V17.254L101.777 9.88165V64.153V64.1608Z" fill="#C73544"/>
<path d="M77.1369 107.902L70.2384 106.263C68.0088 105.626 66.8746 104.943 66.8746 103.257C66.8746 101.478 68.5138 100.25 72.4291 100.25C74.7053 100.25 78.3643 100.779 80.4541 101.563L83.6703 97.1817L83.7635 96.8865C81.3941 95.6125 77.1214 94.4316 72.6622 94.4316C64.1556 94.4316 60.2868 98.6655 60.2868 103.808C60.2868 107.996 62.6951 110.862 67.3873 112.09L73.2604 113.682C76.0338 114.459 78.8382 115.275 78.8382 116.961C78.8382 119.011 75.5754 120.418 71.8465 120.418C69.8034 120.418 66.6415 119.975 64.8781 119.338L61.1103 123.719C63.2311 124.838 67.4184 126.236 71.7144 126.236C79.18 126.236 85.4881 122.274 85.4881 116.456C85.4881 112.043 82.7536 109.495 77.1602 107.902M117.906 94.8434H87.6633V101.214H98.3296V125.786H104.7V101.214H115.032L117.906 94.8434ZM192.811 114.871H203.641L198.366 101.175L192.811 114.871ZM194.637 94.8434H202.102L214.074 125.786H207.61L205.241 119.594H191.18L188.764 125.786H182.3L194.629 94.8434H194.637ZM154.59 104.989V125.786H148.219V94.8434H153.774L171.16 115.687V94.8434H177.53V125.786H171.976L154.59 104.989ZM122.979 114.871H133.809L128.534 101.175L122.979 114.871ZM124.805 94.8434H132.271L144.242 125.786H137.778L135.409 119.594H121.348L118.94 125.786H112.476L124.805 94.8434ZM31.6674 125.786V94.8434H56.1462V100.445H37.7579V107.133H49.3254V112.727H37.7579V120.192H56.1462V125.793H31.6674V125.786ZM6.83118 100.398V111.686H14.2502C17.3887 111.686 19.8902 109.549 19.8902 106.092C19.8902 102.41 17.3887 100.406 14.2502 100.406H6.83118V100.398ZM0.460938 94.8434H15.2523C21.3041 94.8434 26.4935 98.3936 26.4935 106.131C26.4935 113.092 21.3041 117.232 15.2523 117.232H6.83895V125.786H0.460938V94.8434Z" fill="white"/>
<path d="M17.7034 164.488L14.9921 167.743H14.7824L12.1022 164.488V169.895H11.0068V162.756H11.9934L14.8989 166.252L17.7966 162.756H18.791V169.895H17.7034V164.488Z" fill="white"/>
<path d="M24.7215 168.962C26.2441 168.962 27.3239 167.828 27.3239 166.329C27.3239 164.829 26.2441 163.687 24.7215 163.687C23.1988 163.687 22.1268 164.806 22.1268 166.329C22.1268 167.851 23.2144 168.962 24.7215 168.962ZM24.7137 162.646C26.819 162.646 28.396 164.224 28.396 166.329C28.396 168.434 26.819 169.988 24.7137 169.988C22.6084 169.988 21.0547 168.411 21.0547 166.329C21.0547 164.247 22.6317 162.646 24.7137 162.646Z" fill="white"/>
<path d="M31.7683 164.504V169.895H30.6807V162.756H31.6362L36.1653 168.171V162.756H37.2607V169.895H36.3051L31.7683 164.504Z" fill="white"/>
<path d="M40.9967 166.869C40.9967 168.151 41.6493 168.99 43.0398 168.99C44.4304 168.99 45.1141 168.089 45.1141 166.862V162.76H46.2017V166.947C46.2017 168.594 45.1218 170.008 43.0321 170.008C40.9423 170.008 39.8936 168.726 39.8936 166.947V162.76H40.9812V166.869H40.9967Z" fill="white"/>
<path d="M55.5627 164.488L52.8515 167.743H52.6417L49.9538 164.488V169.895H48.8662V162.756H49.8528L52.7583 166.252L55.656 162.756H56.6503V169.895H55.5627V164.488Z" fill="white"/>
<path d="M59.3867 169.896V162.756H64.918V163.727H60.4277V165.732H64.1489V166.695H60.4277V168.932H64.918V169.896H59.3867Z" fill="white"/>
<path d="M68.3151 164.504V169.895H67.2275V162.756H68.1831L72.7122 168.171V162.756H73.8075V169.895H72.852L68.3151 164.504Z" fill="white"/>
<path d="M79.369 163.851V169.895H78.2814V163.851H75.7178V162.756H81.8006V163.851H79.369Z" fill="white"/>
<path d="M88.9618 165.738L89.4978 165.552C90.1271 165.319 90.43 165.047 90.43 164.526C90.43 164.006 89.9561 163.594 89.2647 163.594C88.4879 163.594 88.1228 163.99 88.1228 164.495C88.1228 165 88.5733 165.389 88.9618 165.746M90.4533 168.543L88.6277 166.787C87.9907 167.028 87.4313 167.323 87.4313 167.914C87.4313 168.597 88.0062 169.048 88.8996 169.048C89.4512 169.048 89.9794 168.869 90.4533 168.543ZM93.2966 169.887H91.8594L91.168 169.226C90.531 169.7 89.7309 169.996 88.7986 169.996C87.276 169.996 86.3438 169.242 86.3438 167.984C86.3438 166.997 87.0351 166.469 87.9285 166.104C87.4236 165.606 87.0662 165.148 87.0662 164.433C87.0662 163.454 87.8509 162.646 89.2725 162.646C90.5621 162.646 91.5099 163.392 91.5099 164.41C91.5099 165.521 90.7874 166.026 89.9173 166.329L89.6998 166.414L91.2535 167.844C91.7196 167.308 92.0847 166.616 92.3256 165.847L93.1723 166.399C92.9082 167.121 92.5198 167.883 91.976 168.496L93.3044 169.724V169.879L93.2966 169.887Z" fill="white"/>
<path d="M103.965 166.78H99.5524V169.895H98.457V162.756H99.5524V165.824H103.965V162.756H105.06V169.895H103.965V166.78Z" fill="white"/>
<path d="M108.889 162.756H107.802V169.887H108.889V162.756Z" fill="white"/>
<path d="M112.775 166.55C111.734 166.286 111.159 165.672 111.159 164.732C111.159 163.622 112.037 162.658 113.971 162.658C114.958 162.658 115.929 162.93 116.465 163.225L116.139 164.259C115.634 163.94 114.725 163.668 113.925 163.668C112.783 163.668 112.278 164.119 112.278 164.655C112.278 165.136 112.627 165.385 113.241 165.54L114.655 165.921C115.914 166.271 116.582 166.807 116.582 167.809C116.582 169.129 115.416 169.992 113.731 169.992C112.705 169.992 111.719 169.634 111.268 169.37L111.532 168.329C112.014 168.632 112.868 168.982 113.754 168.982C114.795 168.982 115.455 168.555 115.455 167.894C115.455 167.389 115.005 167.117 114.204 166.915L112.767 166.55H112.775Z" fill="white"/>
<path d="M121.672 163.851V169.895H120.584V163.851H118.021V162.756H124.111V163.851H121.672Z" fill="white"/>
<path d="M128.999 168.962C130.521 168.962 131.601 167.828 131.601 166.329C131.601 164.829 130.521 163.687 128.999 163.687C127.476 163.687 126.412 164.806 126.412 166.329C126.412 167.851 127.499 168.962 128.999 168.962ZM128.983 162.646C131.089 162.646 132.666 164.224 132.666 166.329C132.666 168.434 131.089 169.988 128.983 169.988C126.878 169.988 125.324 168.411 125.324 166.329C125.324 164.247 126.901 162.646 128.983 162.646Z" fill="white"/>
<path d="M136.045 163.705V166.392H138.165C138.966 166.392 139.595 165.895 139.595 165.056C139.595 164.147 138.966 163.705 138.165 163.705H136.045ZM134.949 162.749H138.041C139.393 162.749 140.729 163.363 140.729 165.033C140.729 166.323 139.711 167.185 138.484 167.255C139.175 167.969 139.983 169.026 140.869 169.026C141.141 169.026 141.475 168.956 141.731 168.824L141.848 169.702C141.553 169.849 141.149 169.974 140.706 169.974C139.129 169.974 137.971 167.853 137.124 167.247H136.045V169.873H134.957V162.741L134.949 162.749Z" fill="white"/>
<path d="M144.637 162.756H143.55V169.887H144.637V162.756Z" fill="white"/>
<path d="M153.508 168.842C152.871 169.448 151.768 170 150.579 170C148.474 170 146.928 168.632 146.928 166.341C146.928 164.049 148.474 162.658 150.579 162.658C152.405 162.658 153.453 163.684 153.5 165.354L152.49 165.564C152.459 164.391 151.822 163.676 150.556 163.676C149.08 163.676 148.062 164.655 148.062 166.341C148.062 168.026 149.08 168.982 150.602 168.982C151.55 168.982 152.428 168.531 152.972 168.026L153.508 168.842Z" fill="white"/>
<path d="M164.408 166.78H159.988V169.895H158.9V162.756H159.988V165.824H164.408V162.756H165.496V169.895H164.408V166.78Z" fill="white"/>
<path d="M171.439 168.962C172.962 168.962 174.042 167.828 174.042 166.329C174.042 164.829 172.962 163.687 171.439 163.687C169.917 163.687 168.845 164.806 168.845 166.329C168.845 167.851 169.932 168.962 171.439 168.962ZM171.431 162.646C173.537 162.646 175.114 164.224 175.114 166.329C175.114 168.434 173.537 169.988 171.431 169.988C169.326 169.988 167.772 168.411 167.772 166.329C167.772 164.247 169.349 162.646 171.431 162.646Z" fill="white"/>
<path d="M179.959 163.851V169.895H178.863V163.851H176.308V162.756H182.39V163.851H179.959Z" fill="white"/>
<path d="M184.314 169.896V162.756H189.846V163.727H185.355V165.732H189.077V166.695H185.355V168.932H189.846V169.896H184.314Z" fill="white"/>
<path d="M192.156 169.895V162.756H193.244V168.94H197.136V169.895H192.156Z" fill="white"/>
<path d="M200.19 166.55C199.149 166.286 198.574 165.672 198.574 164.732C198.574 163.622 199.452 162.658 201.386 162.658C202.373 162.658 203.352 162.93 203.88 163.225L203.554 164.259C203.049 163.94 202.14 163.668 201.34 163.668C200.198 163.668 199.693 164.119 199.693 164.655C199.693 165.136 200.035 165.385 200.656 165.54L202.07 165.921C203.329 166.271 203.997 166.807 203.997 167.809C203.997 169.129 202.831 169.992 201.146 169.992C200.12 169.992 199.134 169.634 198.683 169.37L198.947 168.329C199.429 168.632 200.283 168.982 201.169 168.982C202.21 168.982 202.87 168.555 202.87 167.894C202.87 167.389 202.42 167.117 201.62 166.915L200.182 166.55H200.19Z" fill="white"/>
</g>
<defs>
<clipPath id="clip0_5826_10341">
<rect width="213.605" height="170" fill="white" transform="translate(0.460938)"/>
</clipPath>
</defs>
</svg>
