<svg id="ART" xmlns="http://www.w3.org/2000/svg" viewBox="0 0 813.08 209.16"><defs><style>.cls-1{fill:#54b948;}.cls-2{fill:#fff;}</style></defs><title>grand-logo-white</title><path class="cls-1" d="M164.25,20.38h18.9L199.76,76l18-55.84h15.12l18,55.84,16.61-55.6h18.44l-27.37,82.69H243.17L225.07,49.36,207,103.08H191.63Z"/><path class="cls-1" d="M318.67,70.12,287.85,20.38h20.62l19.13,33,19.47-33h20L336.3,69.77v32.72H318.67Z"/><path class="cls-1" d="M377.56,20.38h16.26l37.57,50.55V20.38H448.8v82.11h-15L395,50.3v52.2h-17.4Z"/><path class="cls-1" d="M467.48,20.38h31.27c25.19,0,42.61,17.71,42.61,40.82v.24c0,23.11-17.42,41.06-42.61,41.06H467.48Zm31.27,65.8c14.43,0,24.16-10,24.16-24.51v-.23c0-14.54-9.73-24.75-24.16-24.75H485.12v49.5Z"/><path class="cls-1" d="M556.48,20.38h17.64V52.87h32.53V20.38H624.3v82.11H606.65v-33H574.12v33H556.48Z"/><path class="cls-1" d="M670.46,19.8h16.28l34.36,82.7H702.66l-7.32-18.42H661.41l-7.32,18.42h-18ZM689,68.12,678.37,41.5,667.71,68.12Z"/><path class="cls-1" d="M732.9,20.38h19L773,55.1l21.07-34.72h19v82.11H795.55V48.89L773,84h-.46L750.2,49.24v53.25H732.9Z"/><rect class="cls-1" width="133.38" height="123"/><path class="cls-2" d="M104,49.87c-3.6,0-7.79,1.4-11.41,7.17L70,92.55a1.7,1.7,0,0,0-.4.85,1.53,1.53,0,0,0,.4.83,7.73,7.73,0,0,0,6.25,3.16,7.57,7.57,0,0,0,6.56-3.75s17.73-28.08,20.08-31.86c3.17-5.09,4.24-6.58,7.12-6.58,1.13,0,1.38-.63,1.38-1.22C111.37,52.36,108.75,49.87,104,49.87Z"/><path class="cls-2" d="M67.46,57.11c.22-.36,4.61-7.14,7.71-12,2.78-4.35,4.73-5.74,8.3-6.34,1-.2,1.8-.65,1.8-1.64,0-2-3.86-5.36-8.56-5.36a1.9,1.9,0,0,1-1.91-1.23,8.56,8.56,0,0,0-8.16-4.94,8.56,8.56,0,0,0-8.15,4.94,1.89,1.89,0,0,1-1.9,1.23c-4.69,0-8.57,3.36-8.57,5.36,0,1,.76,1.44,1.81,1.64,3.57.62,5.52,2,8.3,6.34,3.11,4.84,7.47,11.62,7.71,12,.35.54.54.58.79.58S67.1,57.65,67.46,57.11Z"/><path class="cls-2" d="M33.33,45.29c0,.53.27,1,1.2,1,4.3,0,7,2.56,9.1,6s12.5,20.12,12.63,20.32a.78.78,0,0,0,.68.43.8.8,0,0,0,.71-.43c.15-.23,5.63-8.87,5.75-9a1.18,1.18,0,0,0,.2-.56.91.91,0,0,0-.19-.53c-.09-.18-6.7-10.56-8.67-13.6-3.87-6-8.68-8-13.2-8C35.52,40.85,33.33,44,33.33,45.29Z"/><path class="cls-2" d="M89.68,52.24c2.1-3.4,4.8-6,9.08-6,.92,0,1.2-.46,1.2-1,0-1.28-2.17-4.44-8.21-4.44-4.54,0-9.33,1.94-13.19,8-2,3-17.37,27.31-20.63,32.5-.14.24-.37.62-.81.62s-.6-.23-.85-.62C49.67,71,40.83,57,40.83,57,37.2,51.28,33,49.87,29.41,49.87c-4.77,0-7.4,2.48-7.4,4.12,0,.59.25,1.22,1.4,1.22,2.86,0,3.94,1.49,7.11,6.58,2.35,3.77,20.07,31.86,20.07,31.86a7.58,7.58,0,0,0,6.58,3.75,7.47,7.47,0,0,0,6.59-3.73C65.29,91.24,87.57,55.64,89.68,52.24Z"/><path class="cls-1" d="M165.49,176.58v-.18c0-18,13.7-32.77,32.43-32.77,11.14,0,17.85,3.07,24.3,8.69l-8.57,10.59c-4.77-4.07-9-6.42-16.17-6.42-9.89,0-17.76,9-17.76,19.73v.18c0,11.59,7.78,20.09,18.74,20.09a21.33,21.33,0,0,0,12.82-3.8v-9.05h-13.7v-12h26.87v27.52a39.63,39.63,0,0,1-26.42,10C178.75,209.16,165.49,195.31,165.49,176.58Z"/><path class="cls-1" d="M258.31,144.26h12.55l26.51,63.82H283.15l-5.66-14.21H251.33l-5.66,14.21H231.8Zm14.32,37.29L264.41,161l-8.22,20.55Z"/><path class="cls-1" d="M306.49,144.71h28.28c7.86,0,14,2.26,18,6.43,3.45,3.53,5.3,8.51,5.3,14.48v.18c0,10.22-5.39,16.65-13.26,19.65L360,208.07H344.05L330.79,187.8H320.1v20.28H306.49Zm27.4,30.78c6.63,0,10.43-3.62,10.43-9v-.18c0-6-4.07-9.05-10.69-9.05H320.1v18.19Z"/><path class="cls-1" d="M370,144.71h24.13c19.44,0,32.88,13.67,32.88,31.5v.18c0,17.83-13.44,31.68-32.88,31.68H370Zm24.13,50.79c11.14,0,18.65-7.69,18.65-18.92v-.18c0-11.23-7.52-19.1-18.65-19.1H383.58v38.2Z"/><path class="cls-1" d="M438.66,144.71h46.66v12.41H452.18V170h29.16v12.41H452.18v13.31h33.58v12.4H438.66Z"/><path class="cls-1" d="M497.43,144.71H510l29,39v-39h13.42v63.37H540.83l-30-40.28v40.28H497.43Z"/><path class="cls-1" d="M559.95,149.11v-.06a9.29,9.29,0,1,1,18.59-.05v.05a9.29,9.29,0,1,1-18.59.06Zm17.51-.06V149a8.21,8.21,0,0,0-8.21-8.36,8.3,8.3,0,0,0-8.24,8.41v.06a8.23,8.23,0,1,0,16.45-.06Zm-12.28-5.12h4.7c2.4,0,4.11,1,4.11,3.34a3.17,3.17,0,0,1-2,3.13l2.35,3.45h-3.2l-2-3H568v3h-2.77Zm4.54,4.74c1,0,1.49-.48,1.49-1.18s-.53-1.19-1.49-1.19H568v2.37Z"/></svg>